<?xml version="1.0" encoding="UTF-8"?>
<svg width="600" height="400" viewBox="0 0 600 400" xmlns="http://www.w3.org/2000/svg">
  <rect width="600" height="400" fill="#B91C1C"/>
  <path d="M0 0 L600 0 L600 400 L0 400 Z" fill="#B91C1C"/>
  <path d="M0 200 Q150 150, 300 200 T 600 200" fill="#DC2626" opacity="0.7"/>
  <path d="M0 250 Q150 200, 300 250 T 600 250" fill="#EF4444" opacity="0.5"/>
  <path d="M0 300 Q150 250, 300 300 T 600 300" fill="#F87171" opacity="0.3"/>
  <g fill="#FFFFFF" text-anchor="middle" font-family="Arial, sans-serif">
    <text x="300" y="150" font-size="48" font-weight="bold">FREE SHIPPING</text>
    <text x="300" y="220" font-size="32">On Orders Over $50</text>
    <text x="300" y="270" font-size="24">Limited Time Offer</text>
  </g>
  <g fill="#FFFFFF" opacity="0.2">
    <path d="M100,100 L120,80 L140,100 L120,120 Z" />
    <path d="M500,100 L520,80 L540,100 L520,120 Z" />
    <path d="M150,300 L170,280 L190,300 L170,320 Z" />
    <path d="M450,320 L470,300 L490,320 L470,340 Z" />
    <path d="M300,350 L320,330 L340,350 L320,370 Z" />
  </g>
</svg>
