<?xml version="1.0" encoding="UTF-8"?>
<svg width="600" height="400" viewBox="0 0 600 400" xmlns="http://www.w3.org/2000/svg">
  <rect width="600" height="400" fill="#047857"/>
  <path d="M0 0 L600 0 L600 400 L0 400 Z" fill="#047857"/>
  <path d="M0 200 Q150 150, 300 200 T 600 200" fill="#059669" opacity="0.7"/>
  <path d="M0 250 Q150 200, 300 250 T 600 250" fill="#10B981" opacity="0.5"/>
  <path d="M0 300 Q150 250, 300 300 T 600 300" fill="#34D399" opacity="0.3"/>
  <g fill="#FFFFFF" text-anchor="middle" font-family="Arial, sans-serif">
    <text x="300" y="150" font-size="48" font-weight="bold">NEW ARRIVALS</text>
    <text x="300" y="220" font-size="32">Fresh Collection</text>
    <text x="300" y="270" font-size="24">Shop Now</text>
  </g>
  <g fill="#FFFFFF" opacity="0.2">
    <rect x="80" y="80" width="40" height="40" rx="5" />
    <rect x="480" y="80" width="40" height="40" rx="5" />
    <rect x="130" y="280" width="40" height="40" rx="5" />
    <rect x="430" y="300" width="40" height="40" rx="5" />
    <rect x="280" y="330" width="40" height="40" rx="5" />
  </g>
</svg>
